
      <svg data-logo="logo" xmlns="http://www.w3.org/2000/svg" viewBox="0 0 219 36">
        <g id="logogram" transform="translate(0, 1) rotate(0)"><path d="M15.4992 0H36.5808L21.0816 22.9729H0L15.4992 0Z" fill="#007AFF"/><path d="M16.4224 25.102L10.4192 34H32.5008L48 11.0271H31.7024L22.2064 25.102H16.4224Z" fill="#312ECB"/></g>
        <g id="logotype" transform="translate(54, 4.5)"><path fill="#111111" d="M20.24 4.21L20.24 4.21Q20.24 5.08 19.89 5.51Q19.54 5.94 19.07 6.21Q18.60 6.48 18.24 6.84Q17.89 7.20 17.89 7.94L17.89 7.94L17.89 20.63Q17.89 21.32 18.18 21.75Q18.46 22.19 19.21 22.19L19.21 22.19L20.08 22.19Q21.38 22.19 22.10 21.67Q22.82 21.15 23.22 20.39Q23.62 19.63 23.93 18.86Q24.23 18.10 24.68 17.58Q25.12 17.06 25.96 17.06L25.96 17.06Q26.82 17.06 27.40 17.55Q27.98 18.04 27.98 18.92L27.98 18.92Q27.98 19.30 27.88 19.66L27.88 19.66L26.71 23.90Q26.39 25.04 25.87 25.82Q25.35 26.60 23.98 26.60L23.98 26.60Q23.45 26.60 22.93 26.46Q22.41 26.32 21.89 26.21L21.89 26.21Q21.43 26.09 20.97 26.04Q20.51 26 20.03 26L20.03 26L9.20 26Q8.27 26 7.71 25.56Q7.15 25.11 7.15 24.14L7.15 24.14Q7.15 23.25 7.50 22.82Q7.86 22.39 8.32 22.13Q8.79 21.86 9.14 21.51Q9.50 21.15 9.50 20.41L9.50 20.41L9.50 7.94Q9.50 7.20 9.14 6.84Q8.79 6.48 8.32 6.22Q7.86 5.95 7.50 5.53Q7.15 5.10 7.15 4.21L7.15 4.21Q7.15 3.24 7.71 2.79Q8.27 2.35 9.20 2.35L9.20 2.35L18.19 2.35Q19.11 2.35 19.67 2.79Q20.24 3.24 20.24 4.21ZM36.93 7.95L36.93 7.95Q37.63 7.95 38.02 8.43Q38.40 8.91 38.40 9.58L38.40 9.58L38.40 20.86Q38.40 21.33 38.45 21.82Q38.49 22.31 38.83 22.67L38.83 22.67Q39.27 23.15 39.57 23.42Q39.87 23.69 39.87 24.44L39.87 24.44Q39.87 25.20 39.40 25.60Q38.93 26 38.20 26L38.20 26L30.93 26Q30.20 26 29.73 25.61Q29.26 25.21 29.26 24.44L29.26 24.44Q29.26 23.71 29.55 23.41Q29.84 23.11 30.30 22.67L30.30 22.67Q30.64 22.33 30.69 21.81Q30.73 21.30 30.73 20.86L30.73 20.86L30.73 14.89Q30.73 14.55 30.68 14.18Q30.63 13.81 30.39 13.56L30.39 13.56Q30.32 13.47 30.22 13.42Q30.13 13.37 30.06 13.30L30.06 13.30Q29.69 12.91 29.37 12.66Q29.05 12.41 29.05 11.78L29.05 11.78Q29.05 11.10 29.48 10.72Q29.91 10.35 30.49 10.12L30.49 10.12L34.18 8.64Q34.83 8.38 35.53 8.17Q36.23 7.95 36.93 7.95ZM34.37 7.88L34.37 7.88Q33.28 7.88 32.16 7.56Q31.05 7.24 30.31 6.47Q29.57 5.71 29.57 4.42L29.57 4.42Q29.57 3.12 30.32 2.37Q31.07 1.63 32.18 1.32Q33.29 1.01 34.37 1.01L34.37 1.01Q35.45 1.01 36.57 1.32Q37.68 1.63 38.45 2.37Q39.21 3.12 39.21 4.42L39.21 4.42Q39.21 5.73 38.45 6.49Q37.70 7.25 36.58 7.57Q35.46 7.88 34.37 7.88ZM52.91 26.36L52.91 26.36L50.25 26.36Q49.13 26.36 48.46 25.69Q47.78 25.03 47.37 24.09L47.37 24.09L42.57 13.17Q42.30 12.57 42.11 12.24Q41.92 11.92 41.39 11.49L41.39 11.49Q41 11.17 40.79 10.88Q40.57 10.58 40.57 10.04L40.57 10.04Q40.57 9.27 41.08 8.88Q41.58 8.50 42.30 8.50L42.30 8.50L51.51 8.50Q52.23 8.50 52.64 8.91Q53.05 9.32 53.05 10.04L53.05 10.04Q53.05 10.65 52.72 10.98Q52.40 11.30 51.97 11.53Q51.54 11.76 51.22 12.07Q50.90 12.38 50.90 12.98L50.90 12.98Q50.90 13.35 50.99 13.72Q51.08 14.09 51.22 14.43L51.22 14.43L53.83 21.13L56.35 14.70Q56.48 14.33 56.58 13.94Q56.67 13.56 56.67 13.17L56.67 13.17Q56.67 12.48 56.36 12.15Q56.04 11.82 55.61 11.59Q55.18 11.37 54.87 11.04Q54.55 10.70 54.55 10.04L54.55 10.04Q54.55 9.27 55.03 8.88Q55.51 8.50 56.24 8.50L56.24 8.50L60.98 8.50Q61.71 8.50 62.20 8.88Q62.69 9.25 62.69 10.04L62.69 10.04Q62.69 10.67 62.46 10.95Q62.23 11.23 61.78 11.63L61.78 11.63Q61.13 12.21 60.87 12.69Q60.60 13.17 60.28 13.95L60.28 13.95Q59.18 16.53 58.11 19.14Q57.03 21.74 55.82 24.29L55.82 24.29Q55.36 25.23 54.69 25.79Q54.02 26.36 52.91 26.36ZM79.37 14.70L79.37 14.70Q79.37 16.22 78.47 17.01Q77.57 17.80 76.10 17.80L76.10 17.80L69.22 17.80Q69.61 19.27 70.62 20.27Q71.63 21.27 73.52 21.27L73.52 21.27Q74.27 21.27 75.02 20.95Q75.76 20.63 76.42 20.21Q77.08 19.78 77.57 19.46Q78.07 19.15 78.32 19.15L78.32 19.15Q78.82 19.15 79.04 19.50Q79.26 19.85 79.26 20.29L79.26 20.29Q79.26 21.85 78.54 23.02Q77.81 24.19 76.62 24.96Q75.44 25.73 74.03 26.11Q72.62 26.50 71.25 26.50L71.25 26.50Q68.57 26.50 66.52 25.38Q64.46 24.27 63.31 22.27Q62.16 20.26 62.16 17.54L62.16 17.54Q62.16 14.64 63.28 12.48Q64.40 10.33 66.50 9.14Q68.60 7.95 71.54 7.95L71.54 7.95Q73.57 7.95 75.36 8.72Q77.15 9.49 78.26 11.00Q79.37 12.50 79.37 14.70ZM68.91 15.17L68.91 15.17Q68.91 15.35 68.91 15.54L68.91 15.54L70.69 15.54Q71.33 15.54 71.57 15.24Q71.81 14.94 71.81 14.33L71.81 14.33Q71.81 13.92 71.71 13.25Q71.61 12.58 71.31 12.05Q71.01 11.52 70.45 11.52L70.45 11.52Q69.93 11.52 69.63 11.94Q69.32 12.36 69.16 12.99Q69.01 13.61 68.96 14.21Q68.91 14.81 68.91 15.17ZM81.45 24.14L81.45 24.14Q81.45 23.25 81.81 22.82Q82.17 22.39 82.65 22.12Q83.13 21.85 83.49 21.50Q83.84 21.15 83.84 20.41L83.84 20.41L83.84 7.94Q83.84 7.18 83.49 6.83Q83.13 6.47 82.65 6.20Q82.17 5.94 81.81 5.51Q81.45 5.08 81.45 4.21L81.45 4.21Q81.45 3.25 82.02 2.80Q82.60 2.35 83.50 2.35L83.50 2.35L93.69 2.35Q97.52 2.35 100.56 3.89Q103.60 5.44 105.37 8.29Q107.14 11.15 107.14 15.10L107.14 15.10Q107.14 18.50 105.55 20.94Q103.96 23.39 101.28 24.69Q98.59 26 95.33 26L95.33 26L83.50 26Q82.58 26 82.02 25.56Q81.45 25.11 81.45 24.14ZM94.53 22.19L94.53 22.19Q95.79 22.19 96.58 21.42Q97.36 20.65 97.78 19.49Q98.20 18.33 98.35 17.08Q98.51 15.83 98.51 14.89L98.51 14.89Q98.51 13.58 98.27 12.06Q98.03 10.55 97.42 9.21Q96.82 7.87 95.75 7.01Q94.68 6.16 93.00 6.16L93.00 6.16L92.25 6.16L92.25 19.52Q92.25 20.69 92.74 21.44Q93.23 22.19 94.53 22.19ZM118.81 7.95L118.81 7.95Q121.63 7.95 123.76 9.12Q125.89 10.28 127.08 12.38Q128.28 14.48 128.28 17.32L128.28 17.32Q128.28 20.10 126.96 22.16Q125.65 24.22 123.43 25.36Q121.22 26.50 118.52 26.50L118.52 26.50Q115.68 26.50 113.55 25.32Q111.41 24.15 110.22 22.03Q109.03 19.90 109.03 17.06L109.03 17.06Q109.03 14.29 110.37 12.24Q111.70 10.19 113.92 9.07Q116.14 7.95 118.81 7.95ZM119.78 22.72L119.78 22.72Q120.21 22.72 120.39 22.27Q120.57 21.83 120.62 21.29Q120.67 20.75 120.67 20.46L120.67 20.46Q120.67 19.49 120.52 18.52Q120.37 17.56 120.13 16.62L120.13 16.62Q120.04 16.24 119.80 15.45Q119.56 14.65 119.22 13.78Q118.88 12.91 118.47 12.29Q118.06 11.68 117.60 11.68L117.60 11.68Q117.20 11.68 117.02 12.12Q116.84 12.57 116.79 13.11Q116.74 13.64 116.74 13.92L116.74 13.92Q116.74 14.38 116.88 15.40Q117.02 16.41 117.28 17.66Q117.55 18.91 117.92 20.06Q118.30 21.21 118.77 21.97Q119.24 22.72 119.78 22.72ZM146.73 13.56L146.73 13.56Q146.73 15.17 145.57 16.00Q144.41 16.84 142.94 16.84L142.94 16.84Q141.44 16.84 140.53 16.02Q139.63 15.20 139.63 13.66L139.63 13.66Q139.63 12.96 139.45 12.24Q139.27 11.52 138.33 11.52L138.33 11.52Q137.61 11.52 137.23 12.23Q136.86 12.93 136.73 13.80Q136.60 14.67 136.60 15.20L136.60 15.20Q136.60 16.67 137.08 18.00Q137.56 19.33 138.60 20.16Q139.64 20.99 141.30 20.99L141.30 20.99Q142.27 20.99 143.23 20.52Q144.19 20.05 144.92 19.59Q145.66 19.13 145.95 19.13L145.95 19.13Q146.48 19.13 146.65 19.55Q146.82 19.97 146.82 20.38L146.82 20.38Q146.82 21.92 146.09 23.06Q145.37 24.21 144.18 24.97Q142.99 25.73 141.60 26.11Q140.21 26.50 138.87 26.50L138.87 26.50Q136.31 26.50 134.27 25.39Q132.23 24.29 131.04 22.31Q129.85 20.33 129.85 17.73L129.85 17.73Q129.85 14.91 131.00 12.70Q132.14 10.50 134.25 9.23Q136.36 7.95 139.23 7.95L139.23 7.95Q140.51 7.95 141.83 8.27Q143.15 8.59 144.26 9.26Q145.37 9.94 146.05 11.00Q146.73 12.07 146.73 13.56ZM156.32 10.88L156.32 10.88Q155.74 10.88 155.28 11.13Q154.82 11.39 154.82 12.05L154.82 12.05Q154.82 12.60 155.07 12.89Q155.33 13.18 155.81 13.39L155.81 13.39Q156.32 13.61 156.89 13.71Q157.45 13.81 157.98 13.93L157.98 13.93Q159.55 14.28 160.92 15.09Q162.29 15.90 163.13 17.17Q163.98 18.45 163.98 20.19L163.98 20.19Q163.98 22.53 162.92 23.92Q161.86 25.30 160.11 25.90Q158.36 26.50 156.27 26.50L156.27 26.50Q155.74 26.50 154.81 26.36Q153.88 26.22 153.43 25.98L153.43 25.98L153.42 25.98Q153.25 25.90 152.85 25.79Q152.46 25.69 152.27 25.69L152.27 25.69Q151.74 25.69 151.37 26.11Q150.99 26.53 150.44 26.53L150.44 26.53Q149.71 26.53 149.29 26.05Q148.87 25.57 148.66 24.91Q148.44 24.26 148.27 23.69L148.27 23.69Q148.15 23.21 148.00 22.74Q147.85 22.27 147.85 21.78L147.85 21.78Q147.85 20.89 148.32 20.34Q148.80 19.80 149.71 19.80L149.71 19.80Q150.60 19.80 151.18 20.18Q151.76 20.57 152.21 21.13Q152.67 21.69 153.14 22.27Q153.60 22.84 154.27 23.22Q154.94 23.61 155.95 23.61L155.95 23.61Q156.65 23.61 157.01 23.19Q157.36 22.77 157.36 22.10L157.36 22.10Q157.36 21.15 156.85 20.87Q156.34 20.60 155.54 20.45L155.54 20.45Q154.07 20.16 152.74 19.76Q151.42 19.37 150.40 18.69Q149.38 18.00 148.79 16.87Q148.20 15.75 148.20 13.97L148.20 13.97Q148.20 11.87 149.35 10.54Q150.49 9.22 152.26 8.59Q154.03 7.95 155.86 7.95L155.86 7.95Q156.56 7.95 157.24 8.00Q157.91 8.06 158.58 8.28L158.58 8.28Q158.66 8.29 158.98 8.41Q159.30 8.53 159.60 8.65Q159.91 8.76 159.91 8.76L159.91 8.76Q160.48 8.76 160.88 8.35Q161.28 7.95 161.84 7.95L161.84 7.95Q162.56 7.95 162.90 8.51Q163.24 9.06 163.39 9.80Q163.53 10.53 163.62 11.05L163.62 11.05Q163.69 11.44 163.76 11.84Q163.82 12.24 163.82 12.64L163.82 12.64Q163.82 13.32 163.51 13.93Q163.19 14.53 162.39 14.53L162.39 14.53Q161.59 14.53 160.97 13.98Q160.36 13.42 159.74 12.70Q159.13 11.99 158.32 11.43Q157.52 10.88 156.32 10.88Z"/></g>
        
      </svg>
    