
          <svg data-logo="logo" xmlns="http://www.w3.org/2000/svg" viewBox="0 0 171 36">
            <g id="logogram" transform="translate(0, 1) rotate(0)"><path d="M16.0573 0H37.1389L21.6397 22.9729H0.558105L16.0573 0Z" fill="#007AFF"/><path d="M16.9805 25.102L10.9773 34H33.0589L48.5581 11.0271H32.2605L22.7645 25.102H16.9805Z" fill="#312ECB"/></g>
            <g id="logotype" transform="translate(55, 5.5)"><path fill="#111111" d="M26.37 7.25L26.37 7.25Q26.37 7.88 24.52 10.16Q22.66 12.43 18.95 16.32L18.95 16.32L26.34 16.32Q26.72 16.32 26.98 17.35Q27.25 18.38 27.25 20.26Q27.25 22.13 26.81 23.57Q26.37 25 25.64 25L25.64 25L8.59 25Q7.58 25 7.14 22.97Q6.70 20.94 6.70 18.56L6.70 18.56Q6.70 18.04 8.66 15.69Q10.62 13.34 14.58 9.14L14.58 9.14L7.79 9.14Q6.84 9.14 6.84 6.10L6.84 6.10Q6.84 3.96 7.29 2.06Q7.75 0.15 8.45 0.15L8.45 0.15L24.59 0.15Q26.37 0.15 26.37 7.25ZM44.12 18.35L44.12 18.35L29.94 18.35Q29.56 18.35 29.28 17.70Q29.00 17.05 29.00 15.85Q29.00 14.64 29.77 13.40Q30.54 12.15 31.27 12.15L31.27 12.15L45.34 12.15Q46.25 12.15 46.25 14.43L46.25 14.43Q46.25 15.58 45.52 16.97Q44.78 18.35 44.12 18.35ZM59.87 25L59.87 25L51.61 25Q49.89 25 49.30 24.75Q48.70 24.51 48.70 23.95L48.70 23.95L48.70 1.86Q48.70 0.95 49.47 0.55Q50.24 0.15 52.13 0.15L52.13 0.15L60.01 0.15Q66.73 0.15 69.28 2.79Q71.84 5.43 71.84 12.40Q71.84 19.36 69.18 22.18Q66.52 25 59.87 25ZM59.59 5.36L59.59 5.36Q58.75 5.36 58.47 5.50L58.47 5.50L58.47 19.64L59.80 19.79Q60.85 19.79 61.39 18.11Q61.93 16.42 61.93 12.29Q61.93 8.16 61.37 6.76Q60.81 5.36 59.59 5.36ZM84.89 25.32L84.89 25.32Q82.27 25.32 80.38 24.86Q78.48 24.41 76.95 23.25L76.95 23.25Q73.76 20.94 73.76 14.64L73.76 14.64Q73.76 9.04 77.02 6.63L77.02 6.63Q80.06 4.38 84.89 4.38L84.89 4.38Q86.96 4.38 88.43 4.58Q89.90 4.77 91.42 5.40Q92.94 6.03 93.87 7.11Q94.80 8.20 95.39 10.11Q95.99 12.01 95.99 14.64L95.99 14.64Q95.99 19.96 92.98 22.64Q89.97 25.32 84.89 25.32ZM83.67 18.49Q83.91 19.75 84.17 19.99Q84.44 20.24 84.87 20.24Q85.31 20.24 85.57 19.99Q85.84 19.75 86.06 18.49Q86.29 17.23 86.29 15.32Q86.29 13.41 86.20 12.38Q86.12 11.35 85.99 10.79Q85.87 10.23 85.66 9.91L85.66 9.91Q85.34 9.46 84.91 9.46Q84.47 9.46 84.19 9.72Q83.91 9.98 83.67 11.26Q83.42 12.54 83.42 14.88Q83.42 17.23 83.67 18.49ZM102.60 24.41L102.60 24.41Q101.76 24.02 100.80 23.25Q99.84 22.48 99.21 21.43L99.21 21.43Q97.74 18.91 97.74 14.85L97.74 14.85Q97.74 12.33 98.54 10.35Q99.35 8.38 100.50 7.29Q101.66 6.20 103.16 5.50L103.16 5.50Q105.58 4.38 107.99 4.38L107.99 4.38Q112.05 4.38 113.64 5.01Q115.24 5.64 115.24 7.15Q115.24 8.65 114.69 10.35Q114.15 12.05 113.28 12.05L113.28 12.05Q113.00 12.05 111.58 11.45Q110.16 10.86 109.13 10.86Q108.10 10.86 107.55 11.68Q107.01 12.50 107.01 14.87Q107.01 17.23 107.50 18.09Q107.99 18.95 109.02 18.95Q110.06 18.95 111.60 18.24Q113.14 17.54 113.31 17.54L113.31 17.54Q113.98 17.54 114.59 19.12Q115.20 20.70 115.20 21.92L115.20 21.92Q115.20 23.81 113.24 24.56Q111.28 25.32 107.94 25.32Q104.60 25.32 102.60 24.41Z"/></g>
            
          </svg>
        