<svg width="200" height="250" viewBox="0 0 200 250" fill="none" xmlns="http://www.w3.org/2000/svg">
  <rect x="20" y="20" width="160" height="210" rx="8" fill="white" stroke="#e5e7eb" stroke-width="2"/>
  
  <!-- Title -->
  <rect x="30" y="30" width="90" height="14" rx="4" fill="#7c2d12"/>
  <rect x="30" y="48" width="70" height="8" rx="4" fill="#a16207"/>
  
  <!-- Target audience section with icons -->
  <rect x="30" y="65" width="80" height="8" rx="4" fill="#7c2d12"/>
  
  <!-- Persona icons -->
  <circle cx="45" cy="85" r="8" fill="#fef3c7" stroke="#f59e0b"/>
  <circle cx="42" cy="82" r="2" fill="#92400e"/>
  <circle cx="48" cy="82" r="2" fill="#92400e"/>
  <path d="M40 87 Q45 92 50 87" stroke="#92400e" fill="none"/>
  <text x="60" y="88" font-family="Arial" font-size="7" fill="#374151">Target Group 1</text>
  
  <circle cx="45" cy="105" r="8" fill="#dbeafe" stroke="#3b82f6"/>
  <circle cx="42" cy="102" r="2" fill="#1e40af"/>
  <circle cx="48" cy="102" r="2" fill="#1e40af"/>
  <path d="M40 107 Q45 112 50 107" stroke="#1e40af" fill="none"/>
  <text x="60" y="108" font-family="Arial" font-size="7" fill="#374151">Target Group 2</text>
  
  <!-- SWOT Analysis -->
  <rect x="30" y="125" width="70" height="8" rx="4" fill="#7c2d12"/>
  <rect x="30" y="140" width="65" height="30" rx="4" fill="#f0fdf4" stroke="#22c55e"/>
  <rect x="105" y="140" width="65" height="30" rx="4" fill="#fef2f2" stroke="#ef4444"/>
  <text x="62" y="150" font-family="Arial" font-size="8" fill="#15803d" font-weight="bold" text-anchor="middle">Strengths</text>
  <text x="137" y="150" font-family="Arial" font-size="8" fill="#dc2626" font-weight="bold" text-anchor="middle">Weaknesses</text>
  
  <!-- Marketing channels with icons -->
  <rect x="30" y="180" width="100" height="8" rx="4" fill="#7c2d12"/>
  
  <!-- Social media icon -->
  <rect x="35" y="195" width="15" height="15" rx="3" fill="#dbeafe" stroke="#3b82f6"/>
  <circle cx="42" cy="202" r="4" fill="#3b82f6"/>
  <text x="55" y="204" font-family="Arial" font-size="7" fill="#374151">Social Media</text>
  
  <!-- Email icon -->
  <rect x="120" y="195" width="15" height="15" rx="3" fill="#fef3c7" stroke="#f59e0b"/>
  <path d="M125 199 L135 199 L130 204 Z" fill="#f59e0b"/>
  <text x="140" y="204" font-family="Arial" font-size="7" fill="#374151">Email</text>
  
  <!-- Budget chart -->
  <rect x="30" y="220" width="50" height="8" rx="4" fill="#7c2d12"/>
  <rect x="100" y="225" width="20" height="10" rx="2" fill="#22c55e"/>
  <rect x="125" y="225" width="15" height="10" rx="2" fill="#f59e0b"/>
  <rect x="145" y="225" width="10" height="10" rx="2" fill="#ef4444"/>
  
  <!-- Marketing funnel icon -->
  <polygon points="155,70 165,70 162,80 158,80" fill="#7c3aed" opacity="0.7"/>
  <polygon points="158,80 162,80 161,85 159,85" fill="#7c3aed"/>
</svg>
