<svg width="200" height="250" viewBox="0 0 200 250" fill="none" xmlns="http://www.w3.org/2000/svg">
  <rect x="20" y="20" width="160" height="210" rx="8" fill="white" stroke="#e5e7eb" stroke-width="2"/>
  
  <!-- Header -->
  <rect x="30" y="30" width="140" height="20" rx="4" fill="#f3f4f6"/>
  <rect x="30" y="55" width="100" height="8" rx="4" fill="#d1d5db"/>
  <rect x="135" y="55" width="35" height="8" rx="4" fill="#d1d5db"/>
  
  <!-- Attendees section -->
  <rect x="30" y="75" width="60" height="8" rx="4" fill="#6b7280"/>
  <circle cx="38" cy="90" r="4" fill="#e5e7eb"/>
  <rect x="48" y="87" width="80" height="6" rx="3" fill="#f3f4f6"/>
  <circle cx="38" cy="105" r="4" fill="#e5e7eb"/>
  <rect x="48" y="102" width="70" height="6" rx="3" fill="#f3f4f6"/>
  
  <!-- Discussion points -->
  <rect x="30" y="125" width="80" height="8" rx="4" fill="#6b7280"/>
  <rect x="30" y="140" width="140" height="6" rx="3" fill="#f3f4f6"/>
  <rect x="30" y="150" width="120" height="6" rx="3" fill="#f3f4f6"/>
  <rect x="30" y="160" width="135" height="6" rx="3" fill="#f3f4f6"/>
  
  <!-- Action items table -->
  <rect x="30" y="180" width="70" height="8" rx="4" fill="#6b7280"/>
  <rect x="30" y="195" width="140" height="40" rx="4" fill="#f9fafb" stroke="#e5e7eb"/>
  <line x1="60" y1="195" x2="60" y2="235" stroke="#e5e7eb"/>
  <line x1="110" y1="195" x2="110" y2="235" stroke="#e5e7eb"/>
  <line x1="150" y1="195" x2="150" y2="235" stroke="#e5e7eb"/>
  <line x1="30" y1="210" x2="170" y2="210" stroke="#e5e7eb"/>
  <line x1="30" y1="222" x2="170" y2="222" stroke="#e5e7eb"/>
</svg>
