<svg width="200" height="250" viewBox="0 0 200 250" fill="none" xmlns="http://www.w3.org/2000/svg">
  <rect x="20" y="20" width="160" height="210" rx="8" fill="white" stroke="#e5e7eb" stroke-width="2"/>
  
  <!-- Title -->
  <rect x="30" y="30" width="100" height="14" rx="4" fill="#1f2937"/>
  <rect x="30" y="48" width="60" height="8" rx="4" fill="#6b7280"/>
  <rect x="95" y="48" width="40" height="8" rx="4" fill="#6b7280"/>
  
  <!-- Abstract section -->
  <rect x="30" y="65" width="50" height="8" rx="4" fill="#991b1b"/>
  <rect x="30" y="78" width="140" height="4" rx="2" fill="#f3f4f6"/>
  <rect x="30" y="85" width="130" height="4" rx="2" fill="#f3f4f6"/>
  <rect x="30" y="92" width="125" height="4" rx="2" fill="#f3f4f6"/>
  <rect x="30" y="99" width="140" height="4" rx="2" fill="#f3f4f6"/>
  
  <!-- Keywords -->
  <rect x="30" y="112" width="50" height="8" rx="4" fill="#991b1b"/>
  <rect x="30" y="125" width="35" height="6" rx="3" fill="#ddd6fe" stroke="#7c3aed"/>
  <rect x="70" y="125" width="40" height="6" rx="3" fill="#ddd6fe" stroke="#7c3aed"/>
  <rect x="115" y="125" width="30" height="6" rx="3" fill="#ddd6fe" stroke="#7c3aed"/>
  
  <!-- Introduction -->
  <rect x="30" y="140" width="80" height="8" rx="4" fill="#991b1b"/>
  <rect x="30" y="153" width="140" height="4" rx="2" fill="#f3f4f6"/>
  <rect x="30" y="160" width="120" height="4" rx="2" fill="#f3f4f6"/>
  <rect x="30" y="167" width="135" height="4" rx="2" fill="#f3f4f6"/>
  
  <!-- Methodology -->
  <rect x="30" y="180" width="70" height="8" rx="4" fill="#991b1b"/>
  <rect x="30" y="193" width="110" height="4" rx="2" fill="#f3f4f6"/>
  <rect x="30" y="200" width="125" height="4" rx="2" fill="#f3f4f6"/>
  
  <!-- References -->
  <rect x="30" y="215" width="60" height="8" rx="4" fill="#991b1b"/>
  <text x="35" y="235" font-family="Arial" font-size="6" fill="#374151">[1] Author, A. (2023)...</text>
  <text x="35" y="242" font-family="Arial" font-size="6" fill="#374151">[2] Author, B. (2023)...</text>
  
  <!-- Academic document symbol -->
  <circle cx="155" cy="35" r="8" fill="#fef3c7" stroke="#f59e0b"/>
  <path d="M150 32 L155 37 L160 32" stroke="#92400e" stroke-width="2" fill="none"/>
</svg>
